<svg xmlns="http://www.w3.org/2000/svg" width="32" height="32" viewBox="0 0 32 32">
  <g transform="rotate(-15, 16, 16)">
    <!-- Base hand shape -->
    <path fill="#ffffff" stroke="#000000" stroke-width="2.5" stroke-linejoin="round" d="M14 11V3.5C14 2.1 15.1 1 16.5 1S19 2.1 19 3.5V13h1c1.1 0 2 .9 2 2v1h1c1.1 0 2 .9 2 2v1h1c1.1 0 2 .9 2 2v8c0 2.2-1.8 4-4 4H12c-2.2 0-4-1.8-4-4v-4.5c0-1.1.9-2 2-2h.5V13c0-1.1.9-2 2-2z"/>
    <!-- Three vertical lines -->
    <line x1="13" y1="18" x2="13" y2="24" stroke="#000000" stroke-width="2" stroke-linecap="round"/>
    <line x1="16.5" y1="18" x2="16.5" y2="24" stroke="#000000" stroke-width="2" stroke-linecap="round"/>
    <line x1="20" y1="18" x2="20" y2="24" stroke="#000000" stroke-width="2" stroke-linecap="round"/>
  </g>
</svg>
